<?xml version="1.0" encoding="UTF-8"?>
<svg id="_Слой_2" data-name="Слой 2" xmlns="http://www.w3.org/2000/svg" xmlns:xlink="http://www.w3.org/1999/xlink" viewBox="0 0 1417.32 1610.84">
  <defs>
    <style>
      .cls-1 {
        fill: url(#_Безымянный_градиент_110-7);
      }

      .cls-2 {
        fill: url(#_Безымянный_градиент_468);
      }

      .cls-3 {
        fill: url(#_Безымянный_градиент_110-8);
      }

      .cls-4 {
        fill: url(#_Безымянный_градиент_462);
      }

      .cls-5 {
        fill: url(#_Безымянный_градиент_434);
      }

      .cls-6 {
        fill: url(#_Безымянный_градиент_429);
      }

      .cls-7 {
        fill: url(#_Безымянный_градиент_420);
      }

      .cls-8 {
        fill: url(#_Безымянный_градиент_110-2);
      }

      .cls-9 {
        fill: url(#_Безымянный_градиент_110-3);
      }

      .cls-10 {
        fill: url(#_Безымянный_градиент_110);
      }

      .cls-11 {
        fill: url(#_Безымянный_градиент_464);
      }

      .cls-12 {
        fill: url(#_Безымянный_градиент_465);
      }

      .cls-13 {
        fill: url(#_Безымянный_градиент_110-4);
      }

      .cls-14 {
        fill: url(#_Безымянный_градиент_110-6);
      }

      .cls-15 {
        fill: url(#_Безымянный_градиент_430);
      }

      .cls-16 {
        fill: url(#_Безымянный_градиент_110-10);
      }

      .cls-17 {
        fill: url(#_Безымянный_градиент_110-5);
      }

      .cls-18 {
        fill: #ba1500;
      }

      .cls-19 {
        fill: url(#_Безымянный_градиент_469);
      }

      .cls-20 {
        fill: url(#_Безымянный_градиент_110-9);
      }

      .cls-21 {
        fill: url(#_Безымянный_градиент_443);
      }
    </style>
    <linearGradient id="_Безымянный_градиент_429" data-name="Безымянный градиент 429" x1="993.7" y1="194.63" x2="879.8" y2="363.5" gradientUnits="userSpaceOnUse">
      <stop offset="0" stop-color="#b81500"/>
      <stop offset="1" stop-color="#791500"/>
      <stop offset="1" stop-color="#000"/>
    </linearGradient>
    <linearGradient id="_Безымянный_градиент_110" data-name="Безымянный градиент 110" x1="999.98" y1="187.57" x2="871.49" y2="364.42" gradientUnits="userSpaceOnUse">
      <stop offset="0" stop-color="#ff0"/>
      <stop offset=".2" stop-color="#fffb03"/>
      <stop offset=".4" stop-color="#ffef0d"/>
      <stop offset=".6" stop-color="#ffdb1f"/>
      <stop offset=".8" stop-color="#ffbf37"/>
      <stop offset=".97" stop-color="#ffa252"/>
    </linearGradient>
    <linearGradient id="_Безымянный_градиент_430" data-name="Безымянный градиент 430" x1="1086.64" y1="1314.3" x2="333.1" y2="1314.3" gradientUnits="userSpaceOnUse">
      <stop offset="0" stop-color="#b81500"/>
      <stop offset=".23" stop-color="#af1500"/>
      <stop offset=".61" stop-color="#981500"/>
      <stop offset="1" stop-color="#791500"/>
      <stop offset="1" stop-color="#000"/>
    </linearGradient>
    <linearGradient id="_Безымянный_градиент_110-2" data-name="Безымянный градиент 110" x1="955.71" y1="939.12" x2="513.35" y2="1323.66" xlink:href="#_Безымянный_градиент_110"/>
    <linearGradient id="_Безымянный_градиент_468" data-name="Безымянный градиент 468" x1="705.19" y1="168.48" x2="178.83" y2="280.36" gradientUnits="userSpaceOnUse">
      <stop offset="0" stop-color="#b81500"/>
      <stop offset=".23" stop-color="#9f1500"/>
      <stop offset=".5" stop-color="#8a1500"/>
      <stop offset=".76" stop-color="#7d1500"/>
      <stop offset="1" stop-color="#791500"/>
      <stop offset="1" stop-color="#000"/>
    </linearGradient>
    <linearGradient id="_Безымянный_градиент_110-3" data-name="Безымянный градиент 110" x1="537.17" y1="27.85" x2="400.02" y2="426.15" xlink:href="#_Безымянный_градиент_110"/>
    <linearGradient id="_Безымянный_градиент_465" data-name="Безымянный градиент 465" x1="1357.34" y1="439.63" x2="946.98" y2="667.1" gradientUnits="userSpaceOnUse">
      <stop offset="0" stop-color="#b81500"/>
      <stop offset=".24" stop-color="#ae1500"/>
      <stop offset=".65" stop-color="#941500"/>
      <stop offset="1" stop-color="#791500"/>
      <stop offset="1" stop-color="#000"/>
    </linearGradient>
    <linearGradient id="_Безымянный_градиент_110-4" data-name="Безымянный градиент 110" x1="1335.41" y1="405.71" x2="929.2" y2="679.69" xlink:href="#_Безымянный_градиент_110"/>
    <linearGradient id="_Безымянный_градиент_462" data-name="Безымянный градиент 462" x1="1497.19" y1="761.77" x2="1163.84" y2="1012.97" gradientUnits="userSpaceOnUse">
      <stop offset="0" stop-color="#b81500"/>
      <stop offset=".24" stop-color="#ae1500"/>
      <stop offset=".64" stop-color="#951500"/>
      <stop offset="1" stop-color="#791500"/>
      <stop offset="1" stop-color="#000"/>
    </linearGradient>
    <linearGradient id="_Безымянный_градиент_110-5" data-name="Безымянный градиент 110" x1="1472.93" y1="810.32" x2="1150.72" y2="967.47" xlink:href="#_Безымянный_градиент_110"/>
    <linearGradient id="_Безымянный_градиент_443" data-name="Безымянный градиент 443" x1="1342.95" y1="1223.79" x2="816.21" y2="1326.18" gradientUnits="userSpaceOnUse">
      <stop offset="0" stop-color="#b81500"/>
      <stop offset=".02" stop-color="#b61500"/>
      <stop offset=".43" stop-color="#941500"/>
      <stop offset=".77" stop-color="#801500"/>
      <stop offset="1" stop-color="#791500"/>
    </linearGradient>
    <linearGradient id="_Безымянный_градиент_110-6" data-name="Безымянный градиент 110" x1="1067.79" y1="1111.13" x2="1103.48" y2="1450.74" xlink:href="#_Безымянный_градиент_110"/>
    <linearGradient id="_Безымянный_градиент_434" data-name="Безымянный градиент 434" x1="575.56" y1="1288.23" x2="83.6" y2="1288.23" gradientUnits="userSpaceOnUse">
      <stop offset="0" stop-color="#b81500"/>
      <stop offset=".26" stop-color="#b41500"/>
      <stop offset=".51" stop-color="#a81500"/>
      <stop offset=".75" stop-color="#941500"/>
      <stop offset="1" stop-color="#791500"/>
      <stop offset="1" stop-color="#791500"/>
      <stop offset="1" stop-color="#000"/>
    </linearGradient>
    <linearGradient id="_Безымянный_градиент_110-7" data-name="Безымянный градиент 110" x1="538.95" y1="1265.83" x2="108.85" y2="1341.66" xlink:href="#_Безымянный_градиент_110"/>
    <linearGradient id="_Безымянный_градиент_464" data-name="Безымянный градиент 464" x1="144.23" y1="583.64" x2="144.23" y2="1147.88" gradientUnits="userSpaceOnUse">
      <stop offset="0" stop-color="#b81500"/>
      <stop offset=".24" stop-color="#b31500"/>
      <stop offset=".5" stop-color="#a61500"/>
      <stop offset=".77" stop-color="#901500"/>
      <stop offset="1" stop-color="#791500"/>
      <stop offset="1" stop-color="#000"/>
    </linearGradient>
    <linearGradient id="_Безымянный_градиент_110-8" data-name="Безымянный градиент 110" x1="144.23" y1="583.64" x2="144.23" y2="1147.88" xlink:href="#_Безымянный_градиент_110"/>
    <linearGradient id="_Безымянный_градиент_420" data-name="Безымянный градиент 420" x1="675.72" y1="358.86" x2="106.37" y2="757.53" gradientUnits="userSpaceOnUse">
      <stop offset="0" stop-color="#b81500"/>
      <stop offset=".26" stop-color="#b41500"/>
      <stop offset=".51" stop-color="#a81500"/>
      <stop offset=".75" stop-color="#951500"/>
      <stop offset=".98" stop-color="#7b1500"/>
      <stop offset="1" stop-color="#791500"/>
      <stop offset="1" stop-color="#000"/>
    </linearGradient>
    <linearGradient id="_Безымянный_градиент_110-9" data-name="Безымянный градиент 110" x1="675.72" y1="358.86" x2="106.37" y2="757.53" xlink:href="#_Безымянный_градиент_110"/>
    <linearGradient id="_Безымянный_градиент_469" data-name="Безымянный градиент 469" x1="909.49" y1="688.91" x2="323.94" y2="1040.74" gradientUnits="userSpaceOnUse">
      <stop offset="0" stop-color="#b81500"/>
      <stop offset=".23" stop-color="#9f1500"/>
      <stop offset=".5" stop-color="#8a1500"/>
      <stop offset=".76" stop-color="#7d1500"/>
      <stop offset="1" stop-color="#791500"/>
      <stop offset="1" stop-color="#001500"/>
    </linearGradient>
    <linearGradient id="_Безымянный_градиент_110-10" data-name="Безымянный градиент 110" x1="1031.15" y1="667.26" x2="276.15" y2="814.02" xlink:href="#_Безымянный_градиент_110"/>
  </defs>
  <g id="_Слой_1-2" data-name="Слой 1">
    <path d="M83.54,1198.43s.03.03.06.03c0-.03.03-.09.09-.12-.06.03-.09.06-.15.09ZM91.06,1202.31c-1.13-.67-2.36-1.25-3.67-1.65,8.78,5.11,17.56,10.22,26.35,15.3-7.56-4.53-15.12-9.09-22.67-13.65ZM328.3,1340.28c79.22,45.75,158.53,91.37,237.88,136.84-78.64-46.66-158.32-91.64-237.88-136.84ZM646.9,85.29c6.55-4.5,12.97-7.34,18.67-8.69-8.54,1.77-15.02,5.66-18.67,8.69Z"/>
    <g>
      <path class="cls-6" d="M1220.23,351.59c-.25,1.81-1.38,3.03-1.99,3.58-139.59-21.88-279-45.29-418.11-70.04-23.19-4.13-62.21-.28-65.54-32.37-.03-53.12-.03-106.24-.06-159.39.4-6.73,2.02-14.14,7.34-17.38,11.99-7.28,34.85,12.12,40.82,15.42,145.93,80.75,288.24,169.98,432.64,252.9,3.34,1.47,5.29,4.5,4.9,7.28Z"/>
      <path class="cls-10" d="M756.22,99.97c2.59,1.55,5.66,3.56,9.2,6.01,2.63,1.82,4.71,3.26,6.78,4.4,85.05,47.06,170.37,97.91,252.88,147.08,34.03,20.28,68.73,40.96,103.6,61.49-106.83-17.27-215.68-35.76-324.74-55.17-5.35-.95-11.1-1.52-16.65-2.06-9.2-.9-19.63-1.92-26.06-4.71-3.62-1.57-4.54-2.76-4.95-5.56-.02-26.76-.02-53.52-.03-80.28,0-23.73-.01-47.47-.03-71.21M748.18,74.36c-2.29,0-4.43.49-6.3,1.62-5.32,3.24-6.95,10.65-7.34,17.38.03,53.15.03,106.27.06,159.39,3.33,32.1,42.35,28.24,65.54,32.37,139.1,24.75,278.51,48.16,418.11,70.04.61-.55,1.74-1.77,1.99-3.58.4-2.78-1.56-5.81-4.9-7.28-144.4-82.92-286.71-172.15-432.64-252.9-5.04-2.79-22.11-17.04-34.52-17.04h0Z"/>
    </g>
    <path d="M1378.37,374.11c-35.19-21.91-72.98-42.1-107.1-61.78-130.29-75.09-261.13-149.08-387.6-222.3-23.01-13.31-47.49-25.09-70.47-38.34C783.95,34.86,742.7-.66,708.59,0c-21.79.43-39.14,11.14-57.53,21.54-29.99,16.95-64.2,42.62-93.05,58.02-113.58,60.62-225.33,129.65-337.81,194.21-61.11,35.1-122.64,66.68-184.36,103.39-19.34,11.51-32.71,30.42-35.43,53.24l-.4,740.56c.83,11.44,5.05,31.43,11.02,41,6.15,9.85,26.77,21.21,36.9,27.39,73.53,44.89,154.56,86.63,228.73,129.37,126.99,73.16,252.99,149.11,379.34,220.59,5.29,3,10.62,6.92,13.43,8.48,25.58,14.08,46.82,18.85,73.53,3.67,105.14-59.79,210.8-124.66,316.46-185.49,99.42-57.25,200.82-110.89,298.77-169.43,9.7-5.81,21.3-10.86,29.38-16.03,1.19-.76,19.06-18.79,20.07-20.2,2.66-3.7,8.81-16.8,9.45-21.24l.25-759.04c-2.33-30.39-15.15-41.13-38.95-55.94ZM1352.94,431.7l-211.16,563.15-379.55-661.06,590.72,97.92ZM741.88,75.99c11.99-7.28,34.85,12.12,40.82,15.42,145.93,80.75,288.24,169.98,432.64,252.9,3.34,1.47,5.29,4.5,4.9,7.28-.25,1.81-1.38,3.03-1.99,3.58-139.59-21.88-279-45.29-418.11-70.04-23.19-4.13-62.21-.28-65.54-32.37-.03-53.12-.03-106.24-.06-159.39.4-6.73,2.02-14.14,7.34-17.38ZM1101.97,1031.6H318.45l388.7-679.45,394.82,679.45ZM195.83,348.72c.7-1.47,1.65-2.57,2.85-3.58,1.16-.98,2.54-1.87,4.22-2.91,3.76-2.33,8.11-4.93,13.07-7.65,143.63-83.08,287.3-166.18,430.93-249.29,3.64-3.03,10.13-6.92,18.67-8.69.49-.12,1.01-.21,1.53-.31.4-.09.8-.15,1.19-.18.25-.06.52-.09.76-.12h.09c4.5-.58,8.35-.12,11.2,1.26,1.22.61,2.26,1.38,3.06,2.33.98,1.13,3.21,4.31,2.14,11.54,1.8,84.03,2.78,145.35,3.21,160.52.06,2.75.31,10.01-4.28,16.1-4.19,5.54-10.56,7.68-14.87,8.63-157.62,26.28-315.29,52.54-472.91,78.82-.64.09-1.26.21-1.9.31-.18-1.65-.18-4.19,1.04-6.76ZM71.79,432.13c.06-.18.12-.34.18-.52l586.19-97.83-385.61,661.06c-22.06-61.6-44.37-123.19-66.98-184.82-44.34-118.14-88.77-236.23-132.92-354.43-2.72-7.07-5.78-15.12-8.51-22.18,2.54-.43,5.11-.86,7.65-1.28ZM58.29,584.73c5.05-5.6,10.56,12.12,11.54,14.5,56.3,137.67,100.27,280.84,156.91,418.47,4.38,12.27,6.3,29.34-5.17,37.91l-163.28,92.26v-563.15ZM566.18,1477.12c-79.34-45.47-158.66-91.09-237.88-136.84-71.88-40.82-143.69-81.82-214.56-124.32-8.78-5.08-17.56-10.19-26.35-15.3-1.25-.73-2.54-1.47-3.79-2.2-.03,0-.03-.03-.06-.03.06-.03.09-.06.15-.09,24.45-14.93,48.9-29.9,73.35-44.83,25.27-15.45,50.55-30.91,75.82-46.36,1.35-1.01,18.51-13.8,33.6-6.85,2.08.98,4.65,2.54,7.16,5.2,88.77,107.95,179.98,214.1,268.23,322.45,5.45,6.7,34.55,41.49,33.69,45.84-.49,2.48-6.12,6.33-9.36,3.34ZM734.66,1519.72c-13.56,15.27-23.04,29.38-41.43,10.86l-348.77-425.54c-3.8-5.26-7.59-10.56-11.35-15.82,251.16.15,502.35.34,753.54.52-56.73,73.71-118.3,143.94-177.48,215.79-57.71,70.01-114.62,146.85-174.51,214.19ZM1329.63,1202.34l-.09.18-475.48,274.41c-13.13,1.84-9.7-6.06-4.65-13.86,5.38-8.29,13.59-18.08,19.98-25.95,47-57.8,96.3-114.01,143.79-171.42,38.62-46.66,76.31-99.14,116.34-143.82,14.6-16.28,24.6-25.67,48.1-17.53,30.54,17.87,61.05,35.74,91.58,53.61,19.03,11.14,38.1,22.31,57.13,33.44.58.31,1.13.61,1.71.92l.18.09c1.84.98,3.64,1.93,5.45,2.94,1.41.73,2.82,1.47,4.19,2.23-2.75,1.59-5.48,3.18-8.23,4.74ZM1362.09,1150.94l-153.97-89.32c-8.26-6.06-20.56-10.53-20.75-22.34l165.6-454.52c1.47-3.98,5.08-5.48,7.04-4.53,1.35.64,2.08,2.51,2.08,4.5v566.21Z"/>
    <g>
      <path class="cls-15" d="M1086.64,1089.74c-56.73,73.71-118.3,143.94-177.48,215.79-57.71,70.01-114.62,146.85-174.51,214.19-13.56,15.27-23.04,29.38-41.43,10.86l-348.77-425.54c-3.8-5.26-7.59-10.56-11.35-15.82,251.16.15,502.35.34,753.54.52Z"/>
      <path class="cls-8" d="M377.32,1110.93c221.76.14,446.23.3,664.76.46-29.89,37.42-60.94,74.35-91.2,110.34-19.23,22.88-39.12,46.53-58.45,70-21.58,26.19-43.39,53.74-64.48,80.38-35.54,44.91-72.29,91.34-109.51,133.21-1.07,1.2-2.11,2.39-3.13,3.57-1.82,2.08-4.21,4.82-6.2,6.86l-331.78-404.82M333.1,1089.22c3.76,5.26,7.56,10.56,11.35,15.82l348.77,425.54c6.24,6.28,11.45,8.81,16.15,8.81,9.15,0,16.33-9.58,25.28-19.67,59.88-67.35,116.8-144.18,174.51-214.19,59.18-71.85,120.74-142.07,177.48-215.79-251.19-.18-502.38-.37-753.54-.52h0Z"/>
    </g>
    <g>
      <path class="cls-2" d="M684.47,267.72c-4.19,5.54-10.56,7.68-14.87,8.63-157.62,26.28-315.29,52.54-472.91,78.82-.64.09-1.26.21-1.9.31-.18-1.65-.18-4.19,1.04-6.76.7-1.47,1.65-2.57,2.85-3.58,1.16-.98,2.54-1.87,4.22-2.91,3.76-2.33,8.11-4.93,13.07-7.65,143.63-83.08,287.3-166.18,430.93-249.29,6.55-4.5,12.97-7.34,18.67-8.69.49-.12,1.01-.21,1.53-.31.4-.09.8-.15,1.19-.18.25-.06.52-.09.76-.12h.09c4.5-.58,8.35-.12,11.2,1.26.32.16,1.63.92,3.06,2.33,3.95,3.87,4.93,8.95,5.22,11.52-.07,84.35-.29,145.64.14,160.54.07,2.57.35,9.97-4.28,16.1Z"/>
      <path class="cls-9" d="M666.93,98.89c-.02,17.21-.04,33.39-.06,48.34-.08,56.21-.13,93.35.21,105.02v.1c.02.48.05,1.46-.05,2.17-.34.15-.87.35-1.66.54-78.68,13.12-157.39,26.24-236.08,39.35-47.1,7.85-94.19,15.7-141.29,23.55,128.51-74.33,250.03-144.64,369.76-213.91l.73-.42.69-.48c3.05-2.1,5.69-3.43,7.75-4.27M672.81,75.74c-1.17,0-2.39.08-3.67.25h-.09c-.24.03-.52.06-.77.12-.4.03-.8.09-1.19.18-.52.09-1.04.18-1.53.31-5.69,1.35-12.12,4.19-18.67,8.69-143.63,83.11-287.3,166.21-430.93,249.29-4.96,2.72-9.3,5.32-13.07,7.65-1.68,1.04-3.06,1.93-4.22,2.91-1.19,1.01-2.14,2.11-2.85,3.58-1.22,2.57-1.22,5.11-1.04,6.76.64-.09,1.25-.21,1.9-.31,157.62-26.28,315.29-52.54,472.91-78.82,4.31-.95,10.68-3.09,14.87-8.63,4.63-6.12,4.36-13.52,4.28-16.1-.43-14.9-.21-76.19-.14-160.54-.29-2.57-1.27-7.65-5.22-11.52-1.43-1.4-2.74-2.17-3.06-2.33-2.04-.99-4.59-1.5-7.53-1.5h0Z"/>
    </g>
    <path class="cls-18" d="M665.56,76.6c-5.69,1.35-12.12,4.19-18.67,8.69,3.64-3.03,10.13-6.92,18.67-8.69Z"/>
    <g>
      <polygon class="cls-12" points="1352.94 431.7 1141.78 994.85 762.22 333.78 1352.94 431.7"/>
      <path class="cls-13" d="M803.81,362.66l519.57,86.12-185.73,495.32-333.84-581.45M762.22,333.78l379.55,661.06,211.16-563.15-590.72-97.92h0Z"/>
    </g>
    <g>
      <path class="cls-4" d="M1362.09,584.73v566.21l-153.97-89.32c-8.26-6.06-20.56-10.53-20.75-22.34l165.6-454.52c1.47-3.98,5.08-5.48,7.04-4.53,1.35.64,2.08,2.51,2.08,4.5Z"/>
      <path class="cls-17" d="M1340.41,682.59v430.7l-120.5-69.9c-2.09-1.47-4.18-2.78-6.05-3.95-.84-.52-1.85-1.16-2.81-1.78l129.36-355.06M1358.72,579.96c-1.98,0-4.56,1.6-5.74,4.8l-165.6,454.52c.18,11.81,12.48,16.28,20.75,22.34l153.97,89.32v-566.21c0-1.99-.73-3.86-2.08-4.5-.38-.18-.82-.28-1.29-.28h0Z"/>
    </g>
    <g>
      <path class="cls-21" d="M1337.86,1197.6c-2.75,1.59-5.48,3.18-8.23,4.74-158.5,91.55-317.07,183.07-475.57,274.6-13.13,1.84-9.7-6.06-4.65-13.86,5.38-8.29,13.59-18.08,19.98-25.95,47-57.8,96.3-114.01,143.79-171.42,38.62-46.66,76.31-99.14,116.34-143.82,14.6-16.28,24.6-25.67,48.1-17.53,30.54,17.87,61.05,35.74,91.58,53.61,19.03,11.14,38.1,22.31,57.13,33.44.58.31,1.13.61,1.71.92l.18.09c1.84.98,3.64,1.93,5.45,2.94,1.41.73,2.82,1.47,4.19,2.23Z"/>
      <path class="cls-14" d="M1162.17,1123.06c1.23,0,3.3.22,6.5,1.19,14.6,8.54,29.19,17.09,43.78,25.63,15.26,8.94,30.53,17.87,45.8,26.81,9.56,5.59,19.13,11.2,28.7,16.8,2.43,1.42,4.85,2.84,7.28,4.26-94.78,54.74-190.69,110.11-283.68,163.8-32.29,18.64-64.58,37.28-96.86,55.92,17.72-21.26,35.66-42.41,53.21-63.08,20.75-24.44,42.2-49.72,62.99-74.86,15.38-18.59,30.81-38.32,45.72-57.41,22.75-29.11,46.27-59.2,70.06-85.76,10.27-11.46,13.28-13.31,16.51-13.31h0M1162.16,1101.38c-13.37,0-21.73,8.33-32.66,20.52-40.02,44.68-77.72,97.15-116.34,143.82-47.49,57.4-96.78,113.61-143.79,171.42-6.39,7.86-14.6,17.66-19.98,25.95-4.55,7.03-7.78,14.13,1.21,14.13.99,0,2.13-.09,3.44-.27,158.5-91.52,317.07-183.04,475.57-274.6,2.75-1.56,5.48-3.15,8.23-4.74-1.38-.77-2.79-1.5-4.19-2.23-1.8-1.01-3.61-1.96-5.45-2.94-.06-.03-.12-.06-.18-.09-.58-.31-1.13-.61-1.71-.92-19.03-11.14-38.1-22.31-57.13-33.44-30.54-17.87-61.05-35.74-91.58-53.61-5.91-2.05-10.96-2.98-15.45-2.98h0Z"/>
    </g>
    <g>
      <path class="cls-5" d="M575.54,1473.79c-.49,2.48-6.12,6.33-9.36,3.34-78.64-46.66-158.32-91.64-237.88-136.84-71.57-41.34-143.11-82.77-214.56-124.32-7.56-4.53-15.12-9.09-22.67-13.65-1.13-.67-2.36-1.25-3.67-1.65-1.25-.73-2.54-1.47-3.79-2.2,0-.03.03-.09.09-.12,24.45-14.93,48.9-29.9,73.35-44.83,25.27-15.45,50.55-30.91,75.82-46.36,1.35-1.01,18.51-13.8,33.6-6.85,2.08.98,4.65,2.54,7.16,5.2,88.77,107.95,179.98,214.1,268.23,322.45,5.45,6.7,34.55,41.49,33.69,45.84Z"/>
      <path class="cls-1" d="M256.76,1119.92h0c.28,0,.48.03.58.05.07.04.14.08.22.14,39.92,48.53,80.95,97.44,120.64,144.76,41.27,49.2,83.74,99.83,125.29,150.43-46.22-26.74-92.62-53.08-138.02-78.85-8.8-4.99-17.59-9.99-26.39-14.98-77.11-44.54-146.86-84.95-213.19-123.52,1.8-1.1,3.59-2.19,5.38-3.29,12.35-7.55,24.7-15.1,37.06-22.65l42.24-25.83,33.58-20.53.88-.54.82-.62c2.94-2.2,7.94-4.58,10.9-4.58M256.76,1098.24c-11.95,0-22.84,8.12-23.9,8.91-25.27,15.45-50.55,30.91-75.82,46.36-24.45,14.93-48.9,29.9-73.35,44.83-.06.03-.09.09-.09.12,1.25.73,2.54,1.47,3.79,2.2,1.32.4,2.54.98,3.67,1.65,7.56,4.56,15.12,9.12,22.67,13.65,71.45,41.55,142.99,82.99,214.56,124.32,79.56,45.2,159.24,90.18,237.88,136.84.84.78,1.84,1.09,2.87,1.09,2.95,0,6.13-2.59,6.49-4.43.86-4.35-28.24-39.14-33.69-45.84-88.25-108.35-179.46-214.5-268.23-322.45-2.51-2.66-5.08-4.22-7.16-5.2-3.19-1.47-6.48-2.06-9.69-2.06h0Z"/>
    </g>
    <path class="cls-18" d="M83.69,1198.33c-.06.03-.09.09-.09.12-.03,0-.03-.03-.06-.03.06-.03.09-.06.15-.09Z"/>
    <path class="cls-18" d="M113.74,1215.96c-8.78-5.08-17.56-10.19-26.35-15.3,1.32.4,2.54.98,3.67,1.65,7.56,4.56,15.12,9.12,22.67,13.65Z"/>
    <path class="cls-18" d="M566.18,1477.12c-79.34-45.47-158.66-91.09-237.88-136.84,79.56,45.2,159.24,90.18,237.88,136.84Z"/>
    <g>
      <path class="cls-11" d="M221.57,1055.62l-163.28,92.26v-563.15c5.05-5.6,10.56,12.12,11.54,14.5,56.3,137.67,100.27,280.84,156.91,418.47,4.38,12.27,6.3,29.34-5.17,37.91Z"/>
      <path class="cls-3" d="M79.98,684.59c16.21,42.97,31.7,86.27,46.86,128.67,25.01,69.93,50.87,142.22,79.63,212.17,2.2,6.37,2.22,10.96,1.82,12.79l-128.31,72.5v-426.13M60.35,583.64c-.69,0-1.38.33-2.06,1.09v563.15l163.28-92.26c11.47-8.57,9.55-25.64,5.17-37.91-56.64-137.64-100.61-280.81-156.91-418.47-.85-2.06-5.08-15.59-9.48-15.59h0Z"/>
    </g>
    <g>
      <path class="cls-7" d="M658.16,333.78l-385.61,661.06c-22.06-61.6-44.37-123.19-66.98-184.82-43.3-118.08-87.58-236.23-132.92-354.43-2.72-7.07-5.78-15.12-8.51-22.18,2.54-.43,5.11-.86,7.65-1.28,195.47-32.77,390.9-65.57,586.37-98.35Z"/>
      <path class="cls-20" d="M616.12,362.82l-338.88,580.94c-17.36-48.22-34.56-95.54-51.32-141.2-43.44-118.47-87.86-236.93-132.05-352.15,91.32-15.31,182.64-30.63,273.95-45.95,82.76-13.88,165.52-27.77,248.29-41.65M658.16,333.78c-195.47,32.77-390.9,65.57-586.37,98.35-2.54.43-5.11.86-7.65,1.29,2.72,7.07,5.78,15.12,8.51,22.18,45.35,118.2,89.63,236.35,132.92,354.43,22.61,61.63,44.92,123.22,66.98,184.82l385.61-661.06h0Z"/>
    </g>
    <g>
      <polygon class="cls-19" points="1101.97 1031.6 318.45 1031.6 707.15 352.14 1101.97 1031.6"/>
      <path class="cls-16" d="M707.29,395.56l356.99,614.36H355.83l351.46-614.36M707.15,352.14l-388.7,679.46h783.52l-394.82-679.46h0Z"/>
    </g>
  </g>
</svg>